<?xml version="1.0" encoding="UTF-8" standalone="no"?>
<!-- Created with Inkscape (http://www.inkscape.org/) -->

<svg
   xmlns:dc="http://purl.org/dc/elements/1.1/"
   xmlns:cc="http://creativecommons.org/ns#"
   xmlns:rdf="http://www.w3.org/1999/02/22-rdf-syntax-ns#"
   xmlns:svg="http://www.w3.org/2000/svg"
   xmlns="http://www.w3.org/2000/svg"
   xmlns:sodipodi="http://sodipodi.sourceforge.net/DTD/sodipodi-0.dtd"
   xmlns:inkscape="http://www.inkscape.org/namespaces/inkscape"
   width="16px"
   height="16px"
   id="svg2986"
   version="1.1"
   inkscape:version="0.48.2 r9819"
   sodipodi:docname="16mm.svg">
  <defs
     id="defs2988" />
  <sodipodi:namedview
     id="base"
     pagecolor="#ffffff"
     bordercolor="#666666"
     borderopacity="1.0"
     inkscape:pageopacity="0.0"
     inkscape:pageshadow="2"
     inkscape:zoom="62.784865"
     inkscape:cx="8"
     inkscape:cy="7.0274144"
     inkscape:current-layer="layer1"
     showgrid="true"
     inkscape:grid-bbox="true"
     inkscape:document-units="px"
     inkscape:window-width="1366"
     inkscape:window-height="746"
     inkscape:window-x="-8"
     inkscape:window-y="-8"
     inkscape:window-maximized="1" />
  <metadata
     id="metadata2991">
    <rdf:RDF>
      <cc:Work
         rdf:about="">
        <dc:format>image/svg+xml</dc:format>
        <dc:type
           rdf:resource="http://purl.org/dc/dcmitype/StillImage" />
        <dc:title></dc:title>
      </cc:Work>
    </rdf:RDF>
  </metadata>
  <g
     id="layer1"
     inkscape:label="Layer 1"
     inkscape:groupmode="layer">
    <path
       style="fill:#ffffff;stroke:#000000;stroke-width:0.02804796px;stroke-linecap:butt;stroke-linejoin:miter;stroke-opacity:1"
       d="M 0.33642763,11.072599 4.2735237,11.063065 7.2258028,5.1412011 6.5303694,5.1953451 6.7209423,4.9650476 7.7650428,4.9434451 7.0777463,8.1461508 9.1578722,4.9759893 9.7122283,4.956926 6.7278103,11.250355 6.3012744,11.274272 8.8275906,6.0972131 7.1004651,8.6699612 6.6590232,8.708543 7.2213933,6.0190582 4.6286199,11.29356 0.18406285,11.281268 z"
       inkscape:connector-curvature="0"
       sodipodi:nodetypes="cccccccccccccccccc"
       id="path7" />
    <path
       style="fill:#ffffff;stroke:#000000;stroke-width:0.02472999px;stroke-linecap:butt;stroke-linejoin:miter;stroke-opacity:1"
       d="m 15.588501,5.2389496 -4.615128,0.015171 -1.3503619,2.6814498 2.4744429,0.030887 -1.414409,3.1109056 0.75225,-0.02144 -0.108652,0.175025 -4.5144148,0.02532 0.1346583,-0.221011 3.4921045,-0.0329 1.029338,-2.2460841 -2.7226517,-0.028925 1.8724927,-3.7418193 5.165545,0.00391 z"
       id="path2987"
       inkscape:connector-curvature="0"
       sodipodi:nodetypes="ccccccccccccccc" />
    <path
       style="fill:#000000;stroke:#000000;stroke-width:0.03981851;stroke-miterlimit:4;stroke-opacity:1;stroke-dasharray:none"
       d="m 1.1740959,11.260608 -0.94391324,-0.0043 0.0593602,-0.07951 0.0593602,-0.07951 0.59785977,-1e-5 c 0.32882287,-5e-6 1.21644417,-0.0048 1.97249167,-0.01059 L 4.2938864,11.076112 5.7742661,8.1056517 C 6.588475,6.4718984 7.2508867,5.1314319 7.2462919,5.1268373 c -0.00459,-0.00459 -0.1533277,0.00293 -0.3305178,0.016714 -0.1771902,0.013788 -0.3233431,0.024106 -0.3247842,0.02293 -0.00144,-0.00118 0.030036,-0.042216 0.06995,-0.0912 l 0.07257,-0.089062 0.4940631,-0.010567 c 0.2717348,-0.00581 0.4969607,-0.00767 0.500502,-0.00413 0.00354,0.00354 -0.145952,0.7167558 -0.3322076,1.584921 -0.2384251,1.1113365 -0.3336525,1.5834762 -0.3217726,1.5953562 0.01188,0.01188 0.3244945,-0.4518901 1.0563218,-1.567075 L 9.1698649,5.0007778 9.4156842,4.9892571 c 0.1352005,-0.00634 0.2480749,-0.00895 0.2508318,-0.00582 0.00504,0.00574 -2.9154294,6.1708409 -2.9466009,6.2202579 -0.013304,0.02109 -0.052922,0.02834 -0.1949499,0.03569 -0.098039,0.0051 -0.178248,0.006 -0.1782415,0.002 6.4e-6,-0.004 0.56296,-1.16085 1.2510082,-2.5707845 0.8559145,-1.7539227 1.2458308,-2.568683 1.2346394,-2.5798744 -0.009,-0.009 -0.018991,-0.013251 -0.022211,-0.00946 -0.00322,0.0038 -0.3907082,0.5802536 -0.8610862,1.2810167 C 7.4786961,8.0630462 7.0813602,8.6410149 7.0661056,8.646658 7.0508506,8.652298 6.9615927,8.662151 6.867754,8.668547 6.7290643,8.677997 6.6971378,8.676137 6.6971378,8.658587 c 0,-0.011876 0.1226374,-0.6082618 0.2725277,-1.325301 C 7.1642705,6.4023415 7.2372903,6.0246756 7.2250463,6.0124315 7.2069423,5.9943275 7.2368503,5.9344295 5.5051875,9.456818 l -0.8887243,1.80776 -1.2492272,1.77e-4 c -0.687075,9.6e-5 -1.6739882,-0.0018 -2.1931405,-0.0041 l 0,0 z"
       id="path3029"
       inkscape:connector-curvature="0" />
    <path
       style="fill:#000000;stroke:#000000;stroke-width:0.03981851;stroke-miterlimit:4;stroke-opacity:1;stroke-dasharray:none"
       d="m 6.8594871,11.227307 c 0.00269,-0.006 0.025928,-0.04753 0.051642,-0.09239 l 0.046754,-0.08157 1.4743136,-0.01061 c 0.8108725,-0.0058 1.5988133,-0.01566 1.7509803,-0.02182 l 0.276666,-0.01121 0.516675,-1.1285656 C 11.26069,9.2604245 11.4899,8.7492762 11.485874,8.7452502 c -0.0065,-0.00652 -1.9536684,-0.035038 -2.4912211,-0.03649 l -0.2110518,-5.698e-4 0.9238168,-1.8475791 0.9238171,-1.847579 2.549162,0 c 2.073607,0 2.546787,0.00382 2.536426,0.020486 -0.007,0.011267 -0.04114,0.057855 -0.07586,0.1035281 l -0.06313,0.083042 -0.925719,0 c -0.509146,0 -1.548965,0.00475 -2.31071,0.010563 l -1.38499,0.010563 -0.681915,1.3522131 c -0.3750529,0.7437173 -0.6793705,1.3547394 -0.676261,1.357827 0.00311,0.00309 0.485865,0.010706 1.07279,0.016931 0.586925,0.00622 1.139334,0.015799 1.227575,0.021277 l 0.16044,0.00996 -0.69799,1.5353694 c -0.383894,0.8444531 -0.697989,1.5420411 -0.697989,1.5501951 0,0.0091 0.143268,0.01033 0.368104,0.0033 l 0.368103,-0.01156 -0.04245,0.06414 -0.04245,0.06414 -1.038408,0.0096 c -1.9671378,0.01812 -3.4213571,0.02355 -3.4164799,0.01276 z"
       id="path3031"
       inkscape:connector-curvature="0" />
  </g>
</svg>
