<?xml version="1.0" encoding="UTF-8" standalone="no"?>
<!-- Created with Inkscape (http://www.inkscape.org/) -->

<svg
   xmlns:dc="http://purl.org/dc/elements/1.1/"
   xmlns:cc="http://creativecommons.org/ns#"
   xmlns:rdf="http://www.w3.org/1999/02/22-rdf-syntax-ns#"
   xmlns:svg="http://www.w3.org/2000/svg"
   xmlns="http://www.w3.org/2000/svg"
   xmlns:sodipodi="http://sodipodi.sourceforge.net/DTD/sodipodi-0.dtd"
   xmlns:inkscape="http://www.inkscape.org/namespaces/inkscape"
   width="16px"
   height="16px"
   id="svg2986"
   version="1.1"
   inkscape:version="0.48.2 r9819"
   sodipodi:docname="16mm.svg">
  <defs
     id="defs2988" />
  <sodipodi:namedview
     id="base"
     pagecolor="#ffffff"
     bordercolor="#666666"
     borderopacity="1.0"
     inkscape:pageopacity="0.0"
     inkscape:pageshadow="2"
     inkscape:zoom="22.197802"
     inkscape:cx="8"
     inkscape:cy="8"
     inkscape:current-layer="layer1"
     showgrid="true"
     inkscape:grid-bbox="true"
     inkscape:document-units="px"
     inkscape:window-width="1366"
     inkscape:window-height="746"
     inkscape:window-x="-8"
     inkscape:window-y="-8"
     inkscape:window-maximized="1" />
  <metadata
     id="metadata2991">
    <rdf:RDF>
      <cc:Work
         rdf:about="">
        <dc:format>image/svg+xml</dc:format>
        <dc:type
           rdf:resource="http://purl.org/dc/dcmitype/StillImage" />
        <dc:title />
      </cc:Work>
    </rdf:RDF>
  </metadata>
  <g
     id="layer1"
     inkscape:label="Layer 1"
     inkscape:groupmode="layer">
    <path
       style="fill:#ffffff;stroke:#000000;stroke-width:0.02804796px;stroke-linecap:butt;stroke-linejoin:miter;stroke-opacity:1"
       d="M 0.33642763,11.072599 4.2735237,11.063065 7.2258028,5.1412011 6.5303694,5.1953451 6.7209423,4.9650476 7.7650428,4.9434451 7.0777463,8.1461508 9.1578722,4.9759893 9.7122283,4.956926 6.7278103,11.250355 6.3012744,11.274272 8.8275906,6.0972131 7.1004651,8.6699612 6.6590232,8.708543 7.2213933,6.0190582 4.6286199,11.29356 0.18406285,11.281268 z"
       inkscape:connector-curvature="0"
       sodipodi:nodetypes="cccccccccccccccccc"
       id="path7" />
    <path
       style="fill:#ffffff;stroke:#000000;stroke-width:0.02472999px;stroke-linecap:butt;stroke-linejoin:miter;stroke-opacity:1"
       d="m 15.588501,5.2389496 -4.615128,0.015171 -1.3503619,2.6814498 2.4744429,0.030887 -1.414409,3.1109056 0.75225,-0.02144 -0.108652,0.175025 -4.5144148,0.02532 0.1346583,-0.221011 3.4921045,-0.0329 1.029338,-2.2460841 -2.7226517,-0.028925 1.8724927,-3.7418193 5.165545,0.00391 z"
       id="path2987"
       inkscape:connector-curvature="0"
       sodipodi:nodetypes="ccccccccccccccc" />
    <path
       style="fill:#ffffff;stroke:#000000;stroke-width:0.03768266;stroke-miterlimit:4;stroke-opacity:1;stroke-dasharray:none"
       d="m 0.28469209,11.184574 0.0516159,-0.07415 1.97554731,-0.01413 1.9755479,-0.01414 0.026126,-0.05202 c 0.014376,-0.02861 0.6821971,-1.3680075 1.484062,-2.9764374 1.2658044,-2.5390274 1.4543896,-2.9253463 1.4310175,-2.9314564 -0.014799,-0.00384 -0.1601325,0.00352 -0.3229483,0.016486 -0.1628156,0.012939 -0.298207,0.019903 -0.3008696,0.015479 -0.00265,-0.00443 0.025749,-0.043898 0.063135,-0.087714 l 0.067977,-0.079669 0.5036291,-0.0065 c 0.276996,-0.00359 0.5019818,-0.00205 0.4999683,0.00333 -0.00882,0.023648 -0.6722731,3.1277646 -0.6722731,3.1453401 0,0.010759 0.00477,0.024469 0.010618,0.030464 0.00584,0.00596 0.4776154,-0.7005224 1.0483991,-1.570036 L 9.1640336,5.0084994 9.4146074,4.994662 C 9.5524236,4.987042 9.6667913,4.983627 9.668758,4.987042 9.670728,4.990442 9.0085791,6.393484 8.197323,8.1048645 l -1.475011,3.1115995 -0.1403068,0.0137 c -0.077169,0.0075 -0.1619244,0.01074 -0.1883447,0.0071 l -0.048037,-0.0066 1.2504336,-2.5622821 C 8.8477896,6.1035059 8.9597265,5.8605418 8.7367895,6.1924396 8.6899035,6.2622409 8.3016503,6.8405205 7.8740045,7.4775051 7.166781,8.5309237 7.0922369,8.6365296 7.049697,8.6452879 6.950453,8.6657235 6.6787296,8.6789517 6.6845852,8.6630624 6.6879652,8.6538802 6.8127823,8.0624289 6.9619467,7.3487269 7.2257082,6.0867125 7.2569039,5.9083956 7.1920709,6.0333058 7.1780709,6.0602753 6.5941076,7.247287 5.8943701,8.6711115 L 4.62212,11.259883 2.4276029,11.259288 0.2330855,11.258694 0.2847002,11.184548 z"
       id="path2989"
       inkscape:connector-curvature="0" />
    <path
       style="fill:#ffffff;stroke:#000000;stroke-width:0.03768266;stroke-miterlimit:4;stroke-opacity:1;stroke-dasharray:none"
       d="m 6.910572,11.143654 0.047961,-0.08148 1.7460081,-0.01845 c 1.6276609,-0.0172 1.7469859,-0.02071 1.7604369,-0.05174 0.0079,-0.01831 0.241055,-0.527333 0.518042,-1.1311615 0.276989,-0.6038298 0.503677,-1.1030059 0.503756,-1.1092818 1.9e-4,-0.016453 -0.869351,-0.036742 -1.7059296,-0.0398 C 9.384802,8.7103313 8.9994762,8.7037333 8.9245682,8.6971673 L 8.7883705,8.6852279 9.7079519,6.8446248 10.627534,5.0040219 l 2.543077,0.011856 c 1.398691,0.00652 2.544409,0.013607 2.546038,0.015742 0.0015,0.00212 -0.02862,0.044661 -0.06724,0.094499 l -0.0702,0.090612 -1.967214,0.00269 c -1.081969,0.00148 -2.122245,0.00806 -2.311723,0.014575 l -0.344508,0.011837 -0.680231,1.3504787 -0.6802304,1.3504788 0.2413546,0.01185 c 0.1327443,0.00651 0.5596768,0.01428 0.9487388,0.017249 0.38906,0.00295 0.834763,0.010747 0.990447,0.0173 l 0.283065,0.011901 -0.701064,1.5420267 c -0.385586,0.8481139 -0.701064,1.5461649 -0.701064,1.5512259 0,0.005 0.164423,0.0032 0.365385,-0.0042 l 0.365383,-0.01337 -0.03666,0.06265 -0.03666,0.06264 -2.2257939,0.0095 -2.2257922,0.0095 0.04796,-0.08147 z"
       id="path2991"
       inkscape:connector-curvature="0" />
  </g>
</svg>
