<?xml version="1.0" encoding="UTF-8" standalone="no"?>
<!-- Created with Inkscape (http://www.inkscape.org/) -->

<svg
   xmlns:dc="http://purl.org/dc/elements/1.1/"
   xmlns:cc="http://creativecommons.org/ns#"
   xmlns:rdf="http://www.w3.org/1999/02/22-rdf-syntax-ns#"
   xmlns:svg="http://www.w3.org/2000/svg"
   xmlns="http://www.w3.org/2000/svg"
   xmlns:sodipodi="http://sodipodi.sourceforge.net/DTD/sodipodi-0.dtd"
   xmlns:inkscape="http://www.inkscape.org/namespaces/inkscape"
   width="32px"
   height="32px"
   id="svg2986"
   version="1.1"
   inkscape:version="0.48.2 r9819"
   sodipodi:docname="New document 1">
  <defs
     id="defs2988" />
  <sodipodi:namedview
     id="base"
     pagecolor="#ffffff"
     bordercolor="#666666"
     borderopacity="1.0"
     inkscape:pageopacity="0.0"
     inkscape:pageshadow="2"
     inkscape:zoom="11.197802"
     inkscape:cx="16"
     inkscape:cy="16"
     inkscape:current-layer="layer1"
     showgrid="true"
     inkscape:grid-bbox="true"
     inkscape:document-units="px"
     inkscape:window-width="1366"
     inkscape:window-height="746"
     inkscape:window-x="-8"
     inkscape:window-y="-8"
     inkscape:window-maximized="1" />
  <metadata
     id="metadata2991">
    <rdf:RDF>
      <cc:Work
         rdf:about="">
        <dc:format>image/svg+xml</dc:format>
        <dc:type
           rdf:resource="http://purl.org/dc/dcmitype/StillImage" />
        <dc:title></dc:title>
      </cc:Work>
    </rdf:RDF>
  </metadata>
  <g
     id="layer1"
     inkscape:label="Layer 1"
     inkscape:groupmode="layer">
    <path
       style="fill:#ffffff;stroke:#000000;stroke-width:0.05241583px;stroke-linecap:butt;stroke-linejoin:miter;stroke-opacity:1"
       d="m 0.99243792,21.229279 7.79134118,-0.01682 5.8424329,-10.45068 -1.376233,0.09555 0.377136,-0.406421 2.06623,-0.03812 -1.360131,5.652013 4.116479,-5.59458 1.097046,-0.03364 -5.906033,11.106405 -0.844096,0.04221 4.999469,-9.136278 -3.417905,4.540288 -0.873594,0.06809 1.112905,-4.7463 -5.1309844,9.308242 -8.79558599,-0.0217 z"
       inkscape:connector-curvature="0"
       sodipodi:nodetypes="cccccccccccccccccc"
       id="path7" />
    <path
       style="fill:#ffffff;stroke:#000000;stroke-width:0.04621523px;stroke-linecap:butt;stroke-linejoin:miter;stroke-opacity:1"
       d="m 31.175628,10.934275 -9.133138,0.02677 -2.672308,4.732121 4.896816,0.05451 -2.799054,5.490008 1.48867,-0.03783 -0.215017,0.308878 -8.933832,0.04469 0.266483,-0.390031 6.910724,-0.05807 2.037015,-3.963803 -5.38801,-0.05105 3.705582,-6.60342 10.222389,0.0069 z"
       id="path2987"
       inkscape:connector-curvature="0"
       sodipodi:nodetypes="ccccccccccccccc" />
    <path
       style="fill:#ffffff;stroke:#000000;stroke-width:0.0704211;stroke-miterlimit:4;stroke-opacity:1;stroke-dasharray:none"
       d="M 0.89005542,21.426888 0.99220118,21.296035 4.9017235,21.2711 8.811247,21.246165 8.862957,21.15436 c 0.028457,-0.0505 1.350039,-2.414211 2.936894,-5.252707 2.504971,-4.480779 2.878175,-5.16254 2.83192,-5.173322 -0.02929,-0.0068 -0.316893,0.0063 -0.639099,0.02909 -0.322205,0.02284 -0.590139,0.03513 -0.595408,0.02732 -0.0053,-0.0078 0.05096,-0.07747 0.124929,-0.154794 l 0.134529,-0.140597 0.996659,-0.01147 c 0.548164,-0.0064 0.9934,-0.0037 0.989415,0.0058 -0.01742,0.04174 -1.330399,5.519761 -1.330399,5.550777 0,0.01899 0.0096,0.04318 0.02101,0.05377 0.01154,0.01053 0.945179,-1.236256 2.074736,-2.77074 l 2.05374,-2.789974 0.495874,-0.02442 c 0.272733,-0.01343 0.499061,-0.01947 0.502953,-0.01343 0.004,0.006 -1.306465,2.482036 -2.911905,5.502215 l -2.918982,5.491233 -0.277661,0.02417 c -0.152717,0.01329 -0.320441,0.01895 -0.372727,0.01258 l -0.09507,-0.01159 2.474554,-4.52182 c 2.477123,-4.526517 2.698642,-4.955291 2.257459,-4.369571 -0.0928,0.123183 -0.861121,1.143709 -1.707414,2.267835 -1.399564,1.859033 -1.547082,2.045403 -1.631268,2.060859 -0.196391,0.03607 -0.734129,0.05941 -0.722541,0.03137 0.0068,-0.01621 0.253696,-1.059975 0.548886,-2.31949 0.521973,-2.227155 0.583709,-2.541841 0.455407,-2.321405 -0.02771,0.0476 -1.183344,2.142388 -2.568094,4.655099 l -2.5177273,4.568566 -4.3428537,-0.001 -4.34285516,-10e-4 0.1021439,-0.130853 z"
       id="path2989"
       inkscape:connector-curvature="0" />
    <path
       style="fill:#ffffff;stroke:#000000;stroke-width:0.0704211;stroke-miterlimit:4;stroke-opacity:1;stroke-dasharray:none"
       d="m 14.002384,21.354673 0.09491,-0.143783 3.455275,-0.03257 c 3.22107,-0.03035 3.457209,-0.03655 3.483828,-0.0913 0.01564,-0.03231 0.477037,-0.930617 1.025182,-1.996232 0.548149,-1.065615 0.996755,-1.946543 0.996911,-1.957618 3.77e-4,-0.02904 -1.720406,-0.06485 -3.37596,-0.07023 -0.783754,-0.0025 -1.546298,-0.01414 -1.694538,-0.02572 l -0.26953,-0.02107 1.819814,-3.248226 1.819812,-3.248226 5.032639,0.02093 c 2.767949,0.01151 5.035275,0.02402 5.038498,0.02778 0.0029,0.0038 -0.05664,0.07882 -0.133065,0.166768 l -0.138923,0.159908 -3.893031,0.0048 c -2.141169,0.0026 -4.19983,0.01422 -4.574798,0.02572 l -0.681768,0.02089 -1.346146,2.383274 -1.346149,2.383274 0.477632,0.02092 c 0.262695,0.0115 1.107576,0.0252 1.877513,0.03044 0.769934,0.0052 1.65196,0.01896 1.960051,0.03053 l 0.560174,0.021 -1.387375,2.721309 c -0.763057,1.496721 -1.387376,2.728614 -1.387376,2.737545 0,0.009 0.325387,0.0056 0.723082,-0.0073 l 0.723077,-0.0236 -0.07255,0.110557 -0.07255,0.110545 -4.404748,0.01677 -4.404746,0.01677 0.09491,-0.143784 z"
       id="path2991"
       inkscape:connector-curvature="0" />
  </g>
</svg>
