<?xml version="1.0" encoding="UTF-8" standalone="no"?>
<!-- Created with Inkscape (http://www.inkscape.org/) -->

<svg
   xmlns:dc="http://purl.org/dc/elements/1.1/"
   xmlns:cc="http://creativecommons.org/ns#"
   xmlns:rdf="http://www.w3.org/1999/02/22-rdf-syntax-ns#"
   xmlns:svg="http://www.w3.org/2000/svg"
   xmlns="http://www.w3.org/2000/svg"
   xmlns:sodipodi="http://sodipodi.sourceforge.net/DTD/sodipodi-0.dtd"
   xmlns:inkscape="http://www.inkscape.org/namespaces/inkscape"
   width="32px"
   height="32px"
   id="svg2986"
   version="1.1"
   inkscape:version="0.48.2 r9819"
   sodipodi:docname="32mm.svg">
  <defs
     id="defs2988" />
  <sodipodi:namedview
     id="base"
     pagecolor="#ffffff"
     bordercolor="#666666"
     borderopacity="1.0"
     inkscape:pageopacity="0.0"
     inkscape:pageshadow="2"
     inkscape:zoom="11.197802"
     inkscape:cx="16"
     inkscape:cy="16"
     inkscape:current-layer="layer1"
     showgrid="true"
     inkscape:grid-bbox="true"
     inkscape:document-units="px"
     inkscape:window-width="1366"
     inkscape:window-height="746"
     inkscape:window-x="-8"
     inkscape:window-y="-8"
     inkscape:window-maximized="1" />
  <metadata
     id="metadata2991">
    <rdf:RDF>
      <cc:Work
         rdf:about="">
        <dc:format>image/svg+xml</dc:format>
        <dc:type
           rdf:resource="http://purl.org/dc/dcmitype/StillImage" />
        <dc:title></dc:title>
      </cc:Work>
    </rdf:RDF>
  </metadata>
  <g
     id="layer1"
     inkscape:label="Layer 1"
     inkscape:groupmode="layer">
    <path
       style="fill:#ffffff;stroke:#000000;stroke-width:0.05241583px;stroke-linecap:butt;stroke-linejoin:miter;stroke-opacity:1"
       d="m 0.99243792,21.229279 7.79134118,-0.01682 5.8424329,-10.45068 -1.376233,0.09555 0.377136,-0.406421 2.06623,-0.03812 -1.360131,5.652013 4.116479,-5.59458 1.097046,-0.03364 -5.906033,11.106405 -0.844096,0.04221 4.999469,-9.136278 -3.417905,4.540288 -0.873594,0.06809 1.112905,-4.7463 -5.1309844,9.308242 -8.79558599,-0.0217 z"
       inkscape:connector-curvature="0"
       sodipodi:nodetypes="cccccccccccccccccc"
       id="path7" />
    <path
       style="fill:#ffffff;stroke:#000000;stroke-width:0.04621523px;stroke-linecap:butt;stroke-linejoin:miter;stroke-opacity:1"
       d="m 31.175628,10.934275 -9.133138,0.02677 -2.672308,4.732121 4.896816,0.05451 -2.799054,5.490008 1.48867,-0.03783 -0.215017,0.308878 -8.933832,0.04469 0.266483,-0.390031 6.910724,-0.05807 2.037015,-3.963803 -5.38801,-0.05105 3.705582,-6.60342 10.222389,0.0069 z"
       id="path2987"
       inkscape:connector-curvature="0"
       sodipodi:nodetypes="ccccccccccccccc" />
    <path
       style="fill:#000000;stroke:#000000;stroke-width:0.22325809;stroke-miterlimit:4;stroke-opacity:1;stroke-dasharray:none"
       d="M 0.92489542,21.439432 C 1.0215358,21.322987 1.5677979,21.304568 4.9328678,21.304282 l 3.896082,-3.31e-4 2.9023552,-5.192426 c 1.596296,-2.855834 2.916039,-5.250368 2.932765,-5.321186 0.02526,-0.106955 -0.06947,-0.118063 -0.559386,-0.0656 -0.521841,0.05588 -0.583406,0.04651 -0.534348,-0.08133 0.04639,-0.120883 0.214387,-0.144492 1.028227,-0.144492 0.535029,0 0.972781,0.02415 0.972781,0.05367 0,0.06494 -1.234032,5.194534 -1.30297,5.416159 -0.137921,0.443383 0.300396,-0.08793 2.191774,-2.656772 l 2.071181,-2.813052 0.44813,0 0.44813,0 -0.396268,0.736752 c -0.217948,0.405214 -1.532432,2.876681 -2.921076,5.492149 l -2.524807,4.755398 -0.301943,0 c -0.16607,0 -0.301945,-0.01708 -0.301945,-0.03796 0,-0.02088 1.105402,-2.056719 2.45645,-4.524087 1.351047,-2.467368 2.432795,-4.509777 2.403886,-4.538687 -0.02891,-0.02891 -0.09951,0.0093 -0.156891,0.08502 -0.05738,0.07567 -0.835668,1.105992 -1.729527,2.289601 -1.608032,2.129283 -1.629021,2.15238 -1.986997,2.186518 -0.198989,0.01898 -0.361798,0.02845 -0.361798,0.02105 0,-0.0074 0.242058,-1.04902 0.537907,-2.314715 0.470512,-2.012941 0.556539,-2.509811 0.408176,-2.35753 -0.01994,0.02046 -1.177318,2.106812 -2.571956,4.636327 l -2.5357045,4.599117 -4.3160453,0.02319 c -3.8403668,0.02063 -4.30371349,0.0083 -4.20415478,-0.111629 l 0,0 z"
       id="path2986"
       inkscape:connector-curvature="0" />
    <path
       style="fill:#000000;stroke:#000000;stroke-width:0.22325809;stroke-miterlimit:4;stroke-opacity:1;stroke-dasharray:none"
       d="m 14.053189,21.349264 c 0.09528,-0.114805 0.60023,-0.133955 3.532173,-0.133955 l 3.421,0 1.041765,-2.015669 c 0.572971,-1.108617 1.020384,-2.03705 0.994251,-2.063183 -0.02613,-0.02613 -1.217442,-0.06955 -2.647353,-0.09647 -1.8374,-0.0346 -2.587805,-0.07773 -2.558805,-0.147071 0.02257,-0.05396 0.82197,-1.48455 1.776448,-3.179079 l 1.735415,-3.080962 5.026524,-0.02307 c 4.458782,-0.02047 5.013971,-0.0079 4.915392,0.110831 -0.09566,0.115265 -0.750655,0.137124 -4.705383,0.157029 l -4.594253,0.02312 -1.334141,2.358201 c -0.733778,1.297011 -1.334141,2.392092 -1.334141,2.433514 0,0.04142 1.062569,0.07531 2.361265,0.07531 1.298696,0 2.376404,0.03014 2.394906,0.06698 0.0185,0.03684 -0.581546,1.272571 -1.333442,2.746075 -0.751895,1.473503 -1.367459,2.689143 -1.367919,2.701423 -4.6e-4,0.01228 0.300562,0.02232 0.668938,0.02232 0.386981,0 0.669775,0.03771 0.669775,0.0893 0,0.05832 -1.5218,0.0893 -4.386794,0.0893 -3.889246,0 -4.374184,-0.01519 -4.275621,-0.133955 z"
       id="path2988"
       inkscape:connector-curvature="0" />
  </g>
</svg>
