<?xml version="1.0" encoding="UTF-8" standalone="no"?>
<!-- Created with Inkscape (http://www.inkscape.org/) -->

<svg
   xmlns:dc="http://purl.org/dc/elements/1.1/"
   xmlns:cc="http://creativecommons.org/ns#"
   xmlns:rdf="http://www.w3.org/1999/02/22-rdf-syntax-ns#"
   xmlns:svg="http://www.w3.org/2000/svg"
   xmlns="http://www.w3.org/2000/svg"
   xmlns:sodipodi="http://sodipodi.sourceforge.net/DTD/sodipodi-0.dtd"
   xmlns:inkscape="http://www.inkscape.org/namespaces/inkscape"
   width="48px"
   height="48px"
   id="svg3033"
   version="1.1"
   inkscape:version="0.48.2 r9819"
   sodipodi:docname="New document 3">
  <defs
     id="defs3035" />
  <sodipodi:namedview
     id="base"
     pagecolor="#ffffff"
     bordercolor="#666666"
     borderopacity="1.0"
     inkscape:pageopacity="0.0"
     inkscape:pageshadow="2"
     inkscape:zoom="7"
     inkscape:cx="24"
     inkscape:cy="24"
     inkscape:current-layer="layer1"
     showgrid="true"
     inkscape:grid-bbox="true"
     inkscape:document-units="px"
     inkscape:window-width="1366"
     inkscape:window-height="746"
     inkscape:window-x="-8"
     inkscape:window-y="-8"
     inkscape:window-maximized="1" />
  <metadata
     id="metadata3038">
    <rdf:RDF>
      <cc:Work
         rdf:about="">
        <dc:format>image/svg+xml</dc:format>
        <dc:type
           rdf:resource="http://purl.org/dc/dcmitype/StillImage" />
        <dc:title></dc:title>
      </cc:Work>
    </rdf:RDF>
  </metadata>
  <g
     id="layer1"
     inkscape:label="Layer 1"
     inkscape:groupmode="layer">
    <path
       style="fill:#ffffff;stroke:#000000;stroke-width:0.07882252px;stroke-linecap:butt;stroke-linejoin:miter;stroke-opacity:1"
       d="m 1.0645312,31.968605 11.6446738,-0.02546 8.7319,-15.812664 -2.056869,0.144576 0.563654,-0.614944 3.088119,-0.05768 -2.032806,8.55192 6.152349,-8.465021 1.639607,-0.0509 -8.826955,16.804826 -1.261557,0.06386 7.472035,-13.823876 -5.108284,6.869797 -1.305645,0.103021 1.663312,-7.181509 L 13.75947,32.55862 0.61388752,32.5258 z"
       inkscape:connector-curvature="0"
       sodipodi:nodetypes="cccccccccccccccccc"
       id="path7" />
    <path
       style="fill:#ffffff;stroke:#000000;stroke-width:0.06949807px;stroke-linecap:butt;stroke-linejoin:miter;stroke-opacity:1"
       d="m 46.1753,16.391491 -13.650075,0.04051 -3.99394,7.160053 7.318612,0.08248 -4.183371,8.306794 2.224916,-0.05724 -0.321358,0.467354 -13.352199,0.06762 0.398276,-0.590145 10.328532,-0.08787 3.044454,-5.997532 -8.052737,-0.07723 5.538237,-9.991471 15.278034,0.01041 z"
       id="path2987"
       inkscape:connector-curvature="0"
       sodipodi:nodetypes="ccccccccccccccc" />
    <path
       style="fill:#ffffff;stroke:#000000;stroke-width:0.10589867;stroke-miterlimit:4;stroke-opacity:1;stroke-dasharray:none"
       d="m 0.91151566,32.267601 0.15267554,-0.197989 5.8430384,-0.03773 5.8430414,-0.03773 0.07728,-0.138909 c 0.04253,-0.0764 2.017722,-3.652882 4.389382,-7.947739 3.743845,-6.779755 4.301619,-7.811311 4.232491,-7.827626 -0.04377,-0.0103 -0.473619,0.0094 -0.955177,0.04402 -0.481558,0.03455 -0.882001,0.05314 -0.889877,0.04134 -0.0077,-0.01182 0.07617,-0.117215 0.186748,-0.234216 l 0.201065,-0.212733 1.489577,-0.01734 c 0.819266,-0.0096 1.4847,-0.0055 1.478746,0.0089 -0.02603,0.06315 -1.988369,8.351811 -1.988369,8.398743 0,0.02872 0.0142,0.06533 0.03141,0.08134 0.01716,0.01592 1.412632,-1.870547 3.100828,-4.192337 l 3.069449,-4.22144 0.741119,-0.03695 c 0.407616,-0.02032 0.74588,-0.02946 0.751698,-0.02032 0.006,0.0091 -1.952599,3.755506 -4.352035,8.325264 l -4.362614,8.308649 -0.414982,0.03657 c -0.228244,0.02011 -0.478923,0.02868 -0.557064,0.01904 l -0.142087,-0.01753 3.698384,-6.841854 c 3.702224,-6.84896 4.033298,-7.497727 3.373922,-6.611487 -0.138686,0.186384 -1.287003,1.730517 -2.551843,3.431404 -2.09174,2.812857 -2.312218,3.094848 -2.438037,3.118234 -0.293521,0.05457 -1.097206,0.08989 -1.079885,0.04746 0.01,-0.02452 0.379166,-1.603822 0.820345,-3.509562 0.780124,-3.369852 0.872392,-3.845997 0.680636,-3.512459 -0.04141,0.07202 -1.768586,3.241593 -3.838185,7.043514 l -3.76291,6.912582 -6.4906813,-0.0016 -6.49068406,-0.0016 0.15264572,-0.197989 z"
       id="path2989"
       inkscape:connector-curvature="0" />
    <path
       style="fill:#ffffff;stroke:#000000;stroke-width:0.10589867;stroke-miterlimit:4;stroke-opacity:1;stroke-dasharray:none"
       d="m 20.508755,32.158335 0.14185,-0.217554 5.164135,-0.04928 c 4.814103,-0.04592 5.167027,-0.05531 5.206812,-0.138155 0.02336,-0.04888 0.712963,-1.408093 1.532202,-3.020448 0.819245,-1.612357 1.489716,-2.945266 1.489949,-2.962024 5.62e-4,-0.04394 -2.571262,-0.09811 -5.045595,-0.106274 -1.171373,-0.0037 -2.311044,-0.02139 -2.532597,-0.03891 l -0.402832,-0.03188 2.719831,-4.91481 2.71983,-4.91481 7.52161,0.03166 c 4.136883,0.01741 7.52555,0.03633 7.530369,0.04204 0.0044,0.0056 -0.08465,0.119253 -0.198875,0.252332 l -0.207629,0.241953 -5.818391,0.0071 c -3.20012,0.004 -6.276924,0.02152 -6.837339,0.03891 l -1.018946,0.0316 -2.011905,3.606072 -2.011907,3.606072 0.713851,0.03164 c 0.392614,0.0174 1.655346,0.03813 2.806068,0.04605 1.150715,0.0078 2.468962,0.0287 2.929426,0.04619 l 0.837216,0.03178 -2.073524,4.117546 c -1.14044,2.264649 -2.073523,4.128599 -2.073523,4.14211 0,0.01353 0.48631,0.0085 1.080692,-0.01112 l 1.080686,-0.0357 -0.108428,0.167281 -0.108428,0.167262 -6.583188,0.02538 -6.583183,0.02538 0.14185,-0.217556 z"
       id="path2991"
       inkscape:connector-curvature="0" />
  </g>
</svg>
