<?xml version="1.0" encoding="UTF-8" standalone="no"?>
<!-- Created with Inkscape (http://www.inkscape.org/) -->

<svg
   xmlns:dc="http://purl.org/dc/elements/1.1/"
   xmlns:cc="http://creativecommons.org/ns#"
   xmlns:rdf="http://www.w3.org/1999/02/22-rdf-syntax-ns#"
   xmlns:svg="http://www.w3.org/2000/svg"
   xmlns="http://www.w3.org/2000/svg"
   xmlns:sodipodi="http://sodipodi.sourceforge.net/DTD/sodipodi-0.dtd"
   xmlns:inkscape="http://www.inkscape.org/namespaces/inkscape"
   width="64px"
   height="64px"
   id="svg3105"
   version="1.1"
   inkscape:version="0.48.2 r9819"
   sodipodi:docname="64mm.svg">
  <defs
     id="defs3107" />
  <sodipodi:namedview
     id="base"
     pagecolor="#ffffff"
     bordercolor="#666666"
     borderopacity="1.0"
     inkscape:pageopacity="0.0"
     inkscape:pageshadow="2"
     inkscape:zoom="5.5"
     inkscape:cx="32"
     inkscape:cy="32"
     inkscape:current-layer="layer1"
     showgrid="true"
     inkscape:document-units="px"
     inkscape:grid-bbox="true"
     inkscape:window-width="1366"
     inkscape:window-height="746"
     inkscape:window-x="-8"
     inkscape:window-y="-8"
     inkscape:window-maximized="1" />
  <metadata
     id="metadata3110">
    <rdf:RDF>
      <cc:Work
         rdf:about="">
        <dc:format>image/svg+xml</dc:format>
        <dc:type
           rdf:resource="http://purl.org/dc/dcmitype/StillImage" />
        <dc:title></dc:title>
      </cc:Work>
    </rdf:RDF>
  </metadata>
  <g
     id="layer1"
     inkscape:label="Layer 1"
     inkscape:groupmode="layer">
    <path
       style="fill:#ffffff;stroke:#000000;stroke-width:0.12297534px;stroke-linecap:butt;stroke-linejoin:miter;stroke-opacity:1"
       d="m 1.1240084,46.038618 15.8578016,-0.04549 11.891166,-28.263442 -2.801064,0.258411 0.767589,-1.09915 4.205423,-0.10309 -2.76829,15.285641 8.378312,-15.130315 2.23283,-0.09098 -12.020612,30.036824 -1.717998,0.11416 L 35.324641,22.292492 28.36814,34.571518 26.590107,34.755664 28.855212,21.919487 18.412067,47.093252 0.51031539,47.034572 z"
       inkscape:connector-curvature="0"
       sodipodi:nodetypes="cccccccccccccccccc"
       id="path7" />
    <path
       style="fill:#ffffff;stroke:#000000;stroke-width:0.10842783px;stroke-linecap:butt;stroke-linejoin:miter;stroke-opacity:1"
       d="m 62.55618,18.196196 -18.588774,0.0724 -5.438978,12.79783 9.966543,0.14742 -5.696946,14.847504 3.029907,-0.102307 -0.437625,0.835348 -18.183126,0.120862 0.542378,-1.054822 14.065469,-0.157049 4.145958,-10.719944 -10.966275,-0.138064 7.542011,-17.858682 20.805739,0.01866 z"
       id="path2987"
       inkscape:connector-curvature="0"
       sodipodi:nodetypes="ccccccccccccccc" />
    <path
       style="fill:#000000;stroke:#000000;stroke-width:0.45454547;stroke-miterlimit:4;stroke-opacity:1;stroke-dasharray:none"
       d="m 27.658076,46.46374 c 0.251716,-0.470335 1.772906,-0.571976 8.632993,-0.576835 l 5.654386,-0.004 2.045454,-5.326477 c 1.125,-2.929563 2.045455,-5.419675 2.045455,-5.533583 0,-0.148923 -1.477063,-0.222084 -5.257845,-0.260428 -2.891814,-0.02933 -5.305117,-0.100717 -5.362896,-0.158643 -0.05778,-0.05793 1.543571,-4.005654 3.558554,-8.772728 l 3.663605,-8.667407 10.153836,0 c 5.584609,0 10.151235,0.06136 10.148055,0.136364 -0.0032,0.075 -0.113926,0.278796 -0.2461,0.45288 -0.22204,0.292446 -0.948111,0.3201 -9.547609,0.363636 l -9.307293,0.04712 -2.730868,6.427862 c -1.501978,3.535323 -2.69737,6.461359 -2.656428,6.502301 0.04094,0.04094 2.255222,0.127447 4.920623,0.192234 2.665402,0.06479 4.846184,0.140433 4.846184,0.168103 0,0.03668 -4.763935,12.464055 -5.596482,14.599182 -0.08201,0.210331 0.15644,0.231057 1.405111,0.122133 1.212282,-0.105747 1.488344,-0.08436 1.423716,0.110318 -0.08433,0.25404 -5.299657,0.436391 -14.01147,0.489902 -3.801009,0.02335 -3.953676,0.01075 -3.780981,-0.311931 l 0,0 z"
       id="path2986"
       inkscape:connector-curvature="0" />
    <path
       style="fill:#000000;stroke:#000000;stroke-width:0.45454547;stroke-miterlimit:4;stroke-opacity:1;stroke-dasharray:none"
       d="M 2.2512235,46.846567 C 1.3159852,46.802287 0.94224651,46.71848 0.99338447,46.564511 1.0476542,46.401113 3.0950171,46.307889 9.0512518,46.197604 c 4.3918112,-0.08132 8.0357372,-0.204046 8.0976132,-0.272728 0.08432,-0.0936 6.67419,-15.707128 11.731593,-27.795944 l 0.242711,-0.580158 -1.270676,0.106529 C 26.5957,17.760668 26.346944,17.653057 26.8,17.2 c 0.32348,-0.32348 3.963636,-0.302111 3.963636,0.02327 0,0.132798 -0.57584,3.425197 -1.279643,7.316443 -0.703806,3.891245 -1.256078,7.239411 -1.227273,7.440368 0.03215,0.224319 1.66014,-2.535942 4.21694,-7.149848 3.166947,-5.714953 4.269535,-7.555132 4.602745,-7.681818 0.464293,-0.176525 1.505413,-0.228937 1.505413,-0.07579 0,0.04994 -2.667325,6.759035 -5.927391,14.909091 L 26.727036,46.8 l -0.618063,0 c -0.339935,0 -0.618064,-0.04097 -0.618064,-0.09105 0,-0.05008 2.216378,-5.470534 4.925284,-12.045455 2.708905,-6.574919 4.971943,-12.067836 5.028972,-12.206481 0.06213,-0.151035 0.01229,-0.221617 -0.12431,-0.176082 -0.125399,0.0418 -1.754346,2.769837 -3.619882,6.062304 l -3.391882,5.986305 -0.70926,0.147183 c -0.390095,0.08095 -0.73058,0.125442 -0.756635,0.09887 -0.02606,-0.02657 0.43622,-2.789224 1.027279,-6.139224 1.137245,-6.445689 1.151701,-6.546464 0.938616,-6.543661 -0.075,9.86e-4 -2.468182,5.644535 -5.318182,12.541219 l -5.181818,12.539425 -7.363636,-0.03189 c -4.0500005,-0.01755 -7.9624045,-0.06024 -8.6942315,-0.09489 l 0,0 z"
       id="path2988"
       inkscape:connector-curvature="0" />
  </g>
</svg>
