<?xml version="1.0" encoding="UTF-8" standalone="no"?>
<!-- Created with Inkscape (http://www.inkscape.org/) -->

<svg
   xmlns:dc="http://purl.org/dc/elements/1.1/"
   xmlns:cc="http://creativecommons.org/ns#"
   xmlns:rdf="http://www.w3.org/1999/02/22-rdf-syntax-ns#"
   xmlns:svg="http://www.w3.org/2000/svg"
   xmlns="http://www.w3.org/2000/svg"
   xmlns:sodipodi="http://sodipodi.sourceforge.net/DTD/sodipodi-0.dtd"
   xmlns:inkscape="http://www.inkscape.org/namespaces/inkscape"
   width="64px"
   height="64px"
   id="svg3105"
   version="1.1"
   inkscape:version="0.48.2 r9819"
   sodipodi:docname="New document 7">
  <defs
     id="defs3107" />
  <sodipodi:namedview
     id="base"
     pagecolor="#ffffff"
     bordercolor="#666666"
     borderopacity="1.0"
     inkscape:pageopacity="0.0"
     inkscape:pageshadow="2"
     inkscape:zoom="5.5"
     inkscape:cx="32"
     inkscape:cy="32"
     inkscape:current-layer="layer1"
     showgrid="true"
     inkscape:document-units="px"
     inkscape:grid-bbox="true"
     inkscape:window-width="1366"
     inkscape:window-height="746"
     inkscape:window-x="-8"
     inkscape:window-y="-8"
     inkscape:window-maximized="1" />
  <metadata
     id="metadata3110">
    <rdf:RDF>
      <cc:Work
         rdf:about="">
        <dc:format>image/svg+xml</dc:format>
        <dc:type
           rdf:resource="http://purl.org/dc/dcmitype/StillImage" />
        <dc:title></dc:title>
      </cc:Work>
    </rdf:RDF>
  </metadata>
  <g
     id="layer1"
     inkscape:label="Layer 1"
     inkscape:groupmode="layer">
    <path
       style="fill:#ffffff;stroke:#000000;stroke-width:0.12297534px;stroke-linecap:butt;stroke-linejoin:miter;stroke-opacity:1"
       d="m 1.1240084,46.038618 15.8578016,-0.04549 11.891166,-28.263442 -2.801064,0.258411 0.767589,-1.09915 4.205423,-0.10309 -2.76829,15.285641 8.378312,-15.130315 2.23283,-0.09098 -12.020612,30.036824 -1.717998,0.11416 L 35.324641,22.292492 28.36814,34.571518 26.590107,34.755664 28.855212,21.919487 18.412067,47.093252 0.51031539,47.034572 z"
       inkscape:connector-curvature="0"
       sodipodi:nodetypes="cccccccccccccccccc"
       id="path7" />
    <path
       style="fill:#ffffff;stroke:#000000;stroke-width:0.10842783px;stroke-linecap:butt;stroke-linejoin:miter;stroke-opacity:1"
       d="m 62.55618,18.196196 -18.588774,0.0724 -5.438978,12.79783 9.966543,0.14742 -5.696946,14.847504 3.029907,-0.102307 -0.437625,0.835348 -18.183126,0.120862 0.542378,-1.054822 14.065469,-0.157049 4.145958,-10.719944 -10.966275,-0.138064 7.542011,-17.858682 20.805739,0.01866 z"
       id="path2987"
       inkscape:connector-curvature="0"
       sodipodi:nodetypes="ccccccccccccccc" />
    <path
       style="fill:#ffffff;stroke:#000000;stroke-width:0.16521841;stroke-miterlimit:4;stroke-opacity:1;stroke-dasharray:none"
       d="m 0.91562733,46.573043 0.20789907,-0.353887 7.9570927,-0.06745 7.9570959,-0.06743 0.105251,-0.248296 c 0.05792,-0.136575 2.747749,-6.529136 5.977494,-14.205734 5.098394,-12.118085 5.857979,-13.961881 5.763837,-13.99104 -0.05961,-0.01839 -0.644976,0.01704 -1.300766,0.07867 -0.655788,0.06177 -1.201116,0.09501 -1.211841,0.07388 -0.01074,-0.0211 0.103723,-0.209515 0.254269,-0.418635 l 0.273809,-0.380238 2.028509,-0.03101 c 1.115684,-0.01731 2.021879,-0.01 2.01377,0.01568 -0.03546,0.112878 -2.707776,14.92797 -2.707776,15.011852 0,0.05136 0.01955,0.116782 0.04275,0.14542 0.0235,0.02847 1.923732,-3.343405 4.22273,-7.493355 l 4.180002,-7.545372 1.009256,-0.06604 c 0.555095,-0.03632 1.015746,-0.05265 1.023667,-0.03632 0.0081,0.01623 -2.659062,6.712566 -5.926632,14.880519 l -5.941037,14.850818 -0.565126,0.06536 c -0.310826,0.03594 -0.652196,0.05125 -0.758615,0.03403 l -0.193497,-0.03135 5.036486,-12.22908 c 5.041716,-12.241782 5.492577,-13.401385 4.594632,-11.817328 -0.188877,0.333144 -1.75265,3.093115 -3.475119,6.133268 -2.848548,5.02768 -3.148792,5.53171 -3.320137,5.57351 -0.399716,0.09755 -1.494181,0.160671 -1.470595,0.08484 0.01383,-0.04384 0.51635,-2.866659 1.117153,-6.272967 1.062378,-6.023251 1.18803,-6.874307 0.926893,-6.278146 -0.0564,0.128733 -2.40847,5.794003 -5.226868,12.589528 l -5.124357,12.355502 -8.8390573,-0.0027 -8.83906106,-0.0027 0.20789499,-0.353887 z"
       id="path2989"
       inkscape:connector-curvature="0" />
    <path
       style="fill:#ffffff;stroke:#000000;stroke-width:0.16521841;stroke-miterlimit:4;stroke-opacity:1;stroke-dasharray:none"
       d="m 27.603294,46.377741 0.193171,-0.388855 7.032557,-0.08808 c 6.555879,-0.08208 7.036496,-0.09884 7.090673,-0.246918 0.03184,-0.08738 0.970918,-2.516816 2.086565,-5.398729 1.115654,-2.881912 2.028707,-5.264346 2.029023,-5.294298 7.67e-4,-0.07854 -3.501561,-0.175384 -6.871128,-0.189935 -1.595183,-0.0068 -3.147197,-0.03824 -3.448911,-0.06956 l -0.548578,-0.05699 3.703887,-8.784696 3.703884,-8.784696 10.242985,0.05661 c 5.633637,0.03113 10.24835,0.06496 10.254909,0.07513 0.0059,0.01032 -0.115275,0.213166 -0.270829,0.451018 l -0.282751,0.432464 -7.923528,0.01298 c -4.357944,0.007 -8.547959,0.03845 -9.311136,0.06956 l -1.387609,0.0565 -2.739827,6.445469 -2.739831,6.445468 0.97213,0.05658 c 0.534666,0.0311 2.254259,0.06815 3.821322,0.08233 1.567056,0.01406 3.362251,0.05128 3.989313,0.08256 l 1.140129,0.0568 -2.82374,7.359671 c -1.553059,4.047821 -2.82374,7.379426 -2.82374,7.403579 0,0.02435 0.662263,0.01515 1.471695,-0.01974 l 1.471687,-0.06382 -0.147661,0.298997 -0.147662,0.298963 -8.965032,0.04536 -8.965028,0.04536 0.193171,-0.388858 z"
       id="path2991"
       inkscape:connector-curvature="0" />
  </g>
</svg>
