<?xml version="1.0" encoding="UTF-8" standalone="no"?>
<!-- Created with Inkscape (http://www.inkscape.org/) -->

<svg
   xmlns:dc="http://purl.org/dc/elements/1.1/"
   xmlns:cc="http://creativecommons.org/ns#"
   xmlns:rdf="http://www.w3.org/1999/02/22-rdf-syntax-ns#"
   xmlns:svg="http://www.w3.org/2000/svg"
   xmlns="http://www.w3.org/2000/svg"
   xmlns:sodipodi="http://sodipodi.sourceforge.net/DTD/sodipodi-0.dtd"
   xmlns:inkscape="http://www.inkscape.org/namespaces/inkscape"
   width="744.09448819"
   height="1052.3622047"
   id="svg3056"
   version="1.1"
   inkscape:version="0.48.2 r9819"
   sodipodi:docname="best3.svg">
  <defs
     id="defs3058" />
  <sodipodi:namedview
     id="base"
     pagecolor="#ffffff"
     bordercolor="#666666"
     borderopacity="1.0"
     inkscape:pageopacity="0.0"
     inkscape:pageshadow="2"
     inkscape:zoom="0.7"
     inkscape:cx="432.25904"
     inkscape:cy="247.35201"
     inkscape:document-units="px"
     inkscape:current-layer="layer1"
     showgrid="false"
     inkscape:window-width="1366"
     inkscape:window-height="746"
     inkscape:window-x="-8"
     inkscape:window-y="-8"
     inkscape:window-maximized="1" />
  <metadata
     id="metadata3061">
    <rdf:RDF>
      <cc:Work
         rdf:about="">
        <dc:format>image/svg+xml</dc:format>
        <dc:type
           rdf:resource="http://purl.org/dc/dcmitype/StillImage" />
        <dc:title></dc:title>
      </cc:Work>
    </rdf:RDF>
  </metadata>
  <g
     inkscape:label="Layer 1"
     inkscape:groupmode="layer"
     id="layer1">
    <path
       style="fill:#ffffff;stroke:#000000;stroke-width:2.65828609px;stroke-linecap:butt;stroke-linejoin:miter;stroke-opacity:1"
       d="m -498.52881,983.27589 481.03638,-0.7012 360.71097,-435.36885 -84.96836,3.98069 23.28429,-16.93124 127.56874,-1.58821 -83.97425,235.45937 254.15093,-233.06677 67.73147,-1.40157 -364.6378,462.68592 -52.11432,1.75843 L 538.92586,617.4908 327.90477,806.63641 273.96913,809.473 342.67983,611.74509 25.8934,999.52066 l -543.03821,-0.9038 z"
       inkscape:connector-curvature="0"
       sodipodi:nodetypes="cccccccccccccccccc"
       id="path7" />
    <path
       style="fill:#ffffff;stroke:#000000;stroke-width:2.34381938px;stroke-linecap:butt;stroke-linejoin:miter;stroke-opacity:1"
       d="m 1364.9772,554.39235 -563.87848,1.11554 -164.98811,197.1372 302.32898,2.27084 -172.81336,228.71036 91.91028,-1.57594 -13.27542,12.86758 -551.57362,1.862 16.45268,-16.24844 426.66711,-2.4194 125.76509,-165.12958 -332.65504,-2.12647 228.78215,-275.09443 631.12884,0.28597 z"
       id="path2987"
       inkscape:connector-curvature="0"
       sodipodi:nodetypes="ccccccccccccccc" />
    <path
       style="fill:#ffffff;stroke:#000000;stroke-width:7.14285707;stroke-miterlimit:4;stroke-opacity:1;stroke-dasharray:none"
       d=""
       id="path2990"
       inkscape:connector-curvature="0" />
    <path
       style="fill:#ffffff;stroke:#000000;stroke-width:3.57142854;stroke-miterlimit:4;stroke-opacity:1;stroke-dasharray:none"
       d="m -504.84988,991.50806 6.30639,-5.45121 241.37342,-1.0388 241.373396,-1.03882 3.192071,-3.82448 c 1.755629,-2.10348 83.351215,-100.5745 181.323513,-218.8245 154.6566,-186.66648 177.69802,-215.06819 174.84242,-215.5174 -1.80896,-0.28457 -19.56505,0.26084 -39.45796,1.21202 -19.89292,0.95118 -36.4351,1.46325 -36.76042,1.13793 -0.32532,-0.32532 3.14596,-3.22722 7.71398,-6.44867 l 8.30545,-5.85717 61.53366,-0.47764 c 33.8435,-0.26271 61.33237,-0.15257 61.08636,0.24474 -1.07656,1.73871 -82.13867,229.9498 -82.13867,231.24191 0,0.79119 0.58337,1.79905 1.29637,2.23972 0.713,0.44066 58.35527,-51.50164 128.09394,-115.42735 L 580.0316,537.44978 610.64691,536.4326 c 16.83843,-0.55945 30.81194,-0.81134 31.05226,-0.55977 0.24031,0.25158 -80.661,103.40006 -179.78069,229.21886 l -180.21761,228.76143 -17.14286,1.00683 c -9.42857,0.55374 -19.78398,0.78967 -23.01204,0.52427 L 235.67678,994.90167 388.4554,806.52539 C 541.39275,617.95335 555.06925,600.0909 527.83067,624.49166 c -5.72853,5.13171 -53.16552,47.64618 -105.41552,94.47659 -86.4089,77.44621 -95.51675,85.21021 -100.71428,85.85411 -12.12573,1.5022 -45.32503,2.47471 -44.60959,1.30677 0.41355,-0.6751 15.66322,-44.15791 33.88817,-96.62848 32.22655,-92.78189 36.03802,-105.89156 28.1167,-96.70833 -1.71027,1.98272 -73.05945,89.25058 -158.55375,193.92858 l -155.444203,190.32363 -268.127227,-0.0426 -268.12724,-0.0426 6.30639,-5.45121 z"
       id="path2989"
       inkscape:connector-curvature="0" />
    <path
       style="fill:#ffffff;stroke:#000000;stroke-width:3.57142854;stroke-miterlimit:4;stroke-opacity:1;stroke-dasharray:none"
       d="m 304.70355,988.4997 5.85983,-5.98994 213.32816,-1.35654 c 198.86846,-1.26459 213.44764,-1.52243 215.09106,-3.80405 0.9696,-1.34612 29.4522,-38.76892 63.29465,-83.16178 33.84248,-44.39286 61.53958,-81.09179 61.54912,-81.55319 0.025,-1.20961 -106.21777,-2.70118 -208.4312,-2.92623 -48.389,-0.10657 -95.46832,-0.58867 -104.62067,-1.07142 l -16.64066,-0.87773 112.35494,-135.31909 112.35495,-135.31909 310.71427,0.87161 c 170.8929,0.47938 310.8773,1.00021 311.0764,1.1574 0.1992,0.1572 -3.4981,3.28357 -8.2162,6.94749 l -8.5783,6.66168 -240.3552,0.20093 c -132.1954,0.11051 -259.29673,0.59265 -282.44742,1.07143 l -42.09214,0.87049 -83.11089,99.28572 -83.1109,99.28571 29.48876,0.87127 c 16.21882,0.47922 68.38162,1.04976 115.91733,1.2679 47.53571,0.21815 101.99177,0.79036 121.01347,1.27159 l 34.5849,0.87496 -85.65633,113.36805 c -47.11098,62.35245 -85.65633,113.67243 -85.65633,114.04443 0,0.372 20.08929,0.23402 44.64286,-0.30664 l 44.64286,-0.98301 -4.48006,4.60545 -4.48006,4.60546 -271.94851,0.69854 -271.94851,0.69856 5.85982,-5.98996 z"
       id="path2991"
       inkscape:connector-curvature="0" />
  </g>
</svg>
