<?xml version="1.0" encoding="UTF-8" standalone="no"?>
<!-- Created with Inkscape (http://www.inkscape.org/) -->

<svg
   xmlns:dc="http://purl.org/dc/elements/1.1/"
   xmlns:cc="http://creativecommons.org/ns#"
   xmlns:rdf="http://www.w3.org/1999/02/22-rdf-syntax-ns#"
   xmlns:svg="http://www.w3.org/2000/svg"
   xmlns="http://www.w3.org/2000/svg"
   xmlns:sodipodi="http://sodipodi.sourceforge.net/DTD/sodipodi-0.dtd"
   xmlns:inkscape="http://www.inkscape.org/namespaces/inkscape"
   width="297mm"
   height="210mm"
   id="svg2987"
   version="1.1"
   inkscape:version="0.48.2 r9819"
   sodipodi:docname="New document 1">
  <defs
     id="defs2989" />
  <sodipodi:namedview
     inkscape:document-units="mm"
     pagecolor="#ffffff"
     bordercolor="#666666"
     borderopacity="1.0"
     inkscape:pageopacity="0.0"
     inkscape:pageshadow="2"
     inkscape:zoom="0.43415836"
     inkscape:cx="472.94386"
     inkscape:cy="380"
     inkscape:current-layer="layer1"
     id="namedview2991"
     showgrid="false"
     inkscape:window-width="1366"
     inkscape:window-height="746"
     inkscape:window-x="-8"
     inkscape:window-y="-8"
     inkscape:window-maximized="1" />
  <metadata
     id="metadata2993">
    <rdf:RDF>
      <cc:Work
         rdf:about="">
        <dc:format>image/svg+xml</dc:format>
        <dc:type
           rdf:resource="http://purl.org/dc/dcmitype/StillImage" />
        <dc:title></dc:title>
      </cc:Work>
    </rdf:RDF>
  </metadata>
  <g
     inkscape:label="Layer 1"
     inkscape:groupmode="layer"
     id="layer1">
    <path
       style="fill:#ffffff;stroke:#000000;stroke-width:1.73318386px;stroke-linecap:butt;stroke-linejoin:miter;stroke-opacity:1"
       d="m 16.501337,560.47541 263.043283,-0.5451 197.24619,-338.44948 -46.46293,3.09453 12.73246,-13.1621 69.75792,-1.23465 -45.91931,183.04272 138.97636,-181.18275 37.03735,-1.08956 -199.39348,359.68538 -28.49748,1.36698 168.78698,-295.88203 -115.39185,147.03907 -29.49341,2.20512 37.5728,-153.71083 -173.22709,301.45115 -296.9475081,-0.7026 z"
       inkscape:connector-curvature="0"
       sodipodi:nodetypes="cccccccccccccccccc"
       id="path7" />
    <path
       style="fill:#ffffff;stroke:#000000;stroke-width:1.52815378px;stroke-linecap:butt;stroke-linejoin:miter;stroke-opacity:1"
       d="m 1035.5152,227.06752 -308.34355,0.8672 -90.21978,153.25163 165.32135,1.76531 -94.49883,177.79614 50.25893,-1.22511 -7.25939,10.00307 -301.61484,1.44749 8.99676,-12.6313 233.31273,-1.8808 68.77162,-128.36937 -181.90443,-1.65308 125.10404,-213.85445 345.11789,0.22231 z"
       id="path2987"
       inkscape:connector-curvature="0"
       sodipodi:nodetypes="ccccccccccccccc" />
    <path
       style="fill:#ffffff;stroke:#000000;stroke-width:2.32854629;stroke-miterlimit:4;stroke-opacity:1;stroke-dasharray:none"
       d="m 13.044811,566.87498 3.448499,-4.23769 131.9893,-0.80755 131.98929,-0.80757 1.74552,-2.97309 c 0.96002,-1.63522 45.57862,-78.18517 99.15242,-170.11102 84.57028,-145.11183 97.16993,-167.19091 95.60841,-167.54012 -0.98918,-0.22122 -10.69868,0.20278 -21.57664,0.9422 -10.87797,0.73944 -19.92367,1.13752 -20.10156,0.88462 -0.1779,-0.25291 1.72029,-2.5088 4.2182,-5.0131 l 4.54164,-4.55329 33.64822,-0.37131 c 18.50651,-0.20422 33.53814,-0.11861 33.40362,0.19026 -0.5887,1.35164 -44.91558,178.75966 -44.91558,179.76413 0,0.61506 0.31901,1.39855 0.70889,1.74112 0.38989,0.34257 31.91019,-40.03663 70.04511,-89.73156 l 69.33626,-90.3544 16.74125,-0.79074 c 9.20767,-0.43491 16.84875,-0.63073 16.98015,-0.43516 0.1314,0.19558 -44.10754,80.38171 -98.30877,178.19144 l -98.54771,177.83584 -9.37416,0.7827 c -5.15579,0.43047 -10.8184,0.61388 -12.58358,0.40756 l -3.20943,-0.37513 83.54335,-146.44101 c 83.63013,-146.59319 91.1088,-160.47919 76.21402,-141.5104 -3.13249,3.98933 -29.07228,37.03945 -57.64395,73.44474 -47.25065,60.20557 -52.23105,66.24119 -55.0732,66.74175 -6.63066,1.16779 -24.78491,1.92381 -24.39369,1.01587 0.22614,-0.52482 8.56506,-34.32773 18.53094,-75.1176 17.62232,-72.12729 19.70653,-82.31857 15.37495,-75.17965 -0.93523,1.54133 -39.95082,69.3821 -86.70135,150.75728 l -85.00094,147.95485 -146.61899,-0.0331 -146.6189878,-0.0331 3.4484988,-4.2377 z"
       id="path2989"
       inkscape:connector-curvature="0" />
    <path
       style="fill:#ffffff;stroke:#000000;stroke-width:2.32854629;stroke-miterlimit:4;stroke-opacity:1;stroke-dasharray:none"
       d="m 455.7298,564.53632 3.20431,-4.65649 116.65342,-1.05455 c 108.7465,-0.98308 116.71873,-1.18352 117.61744,-2.95722 0.53021,-1.04645 16.10526,-30.1384 34.61113,-64.64877 18.50601,-34.51037 33.65148,-63.03959 33.65669,-63.39828 0.0134,-0.94033 -58.08263,-2.09986 -113.97565,-2.2748 -26.46037,-0.0829 -52.20456,-0.45763 -57.20928,-0.83291 l -9.09957,-0.68233 61.4386,-105.19512 61.43866,-105.19511 169.90677,0.67758 c 93.44873,0.37266 169.99578,0.77754 170.10468,0.89974 0.109,0.12221 -1.9128,2.55261 -4.4928,5.40088 l -4.6908,5.17869 -131.43253,0.15621 c -72.28802,0.0859 -141.79039,0.46072 -154.44974,0.83291 l -23.0171,0.67671 -45.44721,77.18328 -45.44721,77.18328 16.12525,0.67732 c 8.86886,0.37253 37.39284,0.81607 63.3866,0.98565 25.99374,0.16958 55.77181,0.61441 66.17333,0.98851 l 18.91196,0.68018 -46.83913,88.13069 c -25.76152,48.4719 -46.83914,88.36731 -46.83914,88.6565 0,0.2892 10.98536,0.18193 24.41194,-0.23837 l 24.41179,-0.76418 -2.44975,3.58021 -2.44982,3.58022 -148.70858,0.54303 -148.70856,0.54306 3.2043,-4.65652 z"
       id="path2991"
       inkscape:connector-curvature="0" />
  </g>
</svg>
