<?xml version="1.0" encoding="UTF-8" standalone="no"?>
<!-- Created with Inkscape (http://www.inkscape.org/) -->

<svg
   xmlns:dc="http://purl.org/dc/elements/1.1/"
   xmlns:cc="http://creativecommons.org/ns#"
   xmlns:rdf="http://www.w3.org/1999/02/22-rdf-syntax-ns#"
   xmlns:svg="http://www.w3.org/2000/svg"
   xmlns="http://www.w3.org/2000/svg"
   xmlns:sodipodi="http://sodipodi.sourceforge.net/DTD/sodipodi-0.dtd"
   xmlns:inkscape="http://www.inkscape.org/namespaces/inkscape"
   width="744.09448819"
   height="1052.3622047"
   id="svg3023"
   version="1.1"
   inkscape:version="0.48.2 r9819"
   sodipodi:docname="logo.svg">
  <defs
     id="defs3025" />
  <sodipodi:namedview
     id="base"
     pagecolor="#ffffff"
     bordercolor="#ffffff"
     borderopacity="0.0"
     inkscape:pageopacity="0.0"
     inkscape:pageshadow="0"
     inkscape:zoom="0.35"
     inkscape:cx="-188.0842"
     inkscape:cy="274.76007"
     inkscape:document-units="px"
     inkscape:current-layer="layer1"
     showgrid="false"
     inkscape:window-width="1366"
     inkscape:window-height="746"
     inkscape:window-x="-8"
     inkscape:window-y="-8"
     inkscape:window-maximized="1" />
  <metadata
     id="metadata3028">
    <rdf:RDF>
      <cc:Work
         rdf:about="">
        <dc:format>image/svg+xml</dc:format>
        <dc:type
           rdf:resource="http://purl.org/dc/dcmitype/StillImage" />
        <dc:title></dc:title>
      </cc:Work>
    </rdf:RDF>
  </metadata>
  <g
     inkscape:label="Layer 1"
     inkscape:groupmode="layer"
     id="layer1">
    <path
       style="fill:#ffffff;stroke:#000000;stroke-width:3.40369248px;stroke-linecap:butt;stroke-linejoin:miter;stroke-opacity:1"
       d="m -1221.8302,1294.4935 694.1317,0.1298 292.4422,-469.13408 -103.75081,2.16491 16.38164,-10.8245 141.97481,-2.16487 -9.25743,228.37264 227.321674,-223.00585 61.420036,0.88917 -281.19268,501.12768 -54.49939,0.2022 254.027175,-442.62475 -195.495515,187.65545 -51.90829,0.665 14.83564,-185.69639 -276.03857,438.94549 -759.03979,-0.35 z"
       inkscape:connector-curvature="0"
       sodipodi:nodetypes="cccccccccccccccccc"
       id="path7" />
    <path
       style="fill:#ffffff;stroke:#000000;stroke-width:3.0010469px;stroke-linecap:butt;stroke-linejoin:miter;stroke-opacity:1"
       d="m 1231.5995,841.23093 -897.59851,1.20823 -106.88109,209.22264 453.84448,-1.8338 -116.43835,257.3727 88.12496,-0.759 -11.82573,14.0623 -820.48446,-0.1303 13.46149,-19.7448 679.32075,-0.474 92.9601,-200.1004 -471.97464,1.9903 151.07805,-284.02842 970.45035,-1.20822 z"
       id="path2987"
       inkscape:connector-curvature="0"
       sodipodi:nodetypes="ccccccccccccccc" />
    <path
       style="fill:#ffffff;stroke:#000000;stroke-width:4.20818329;stroke-miterlimit:4;stroke-opacity:1;stroke-dasharray:none"
       d="m -231.47008,1318.9429 c 0.56414,-1.1644 57.44456,-100.4168 126.40092,-220.5607 95.029232,-165.57135 124.785772,-218.75161 122.940209,-219.71609 -1.603922,-0.8382 -3.708948,-0.0271 -6.168079,2.37833 -2.0532721,2.00796 -46.150446,44.35569 -97.993652,94.10607 l -94.260448,90.45509 -22.86916,0 -22.86913,0 -0.0385,-4.9332 c -0.0222,-2.7133 3.04317,-43.7335 6.80942,-91.15572 5.0951,-64.15506 6.30716,-86.66191 4.7359,-87.93971 -1.16149,-0.94453 -2.41363,-1.42133 -2.78255,-1.05955 -0.36883,0.36178 -62.23148,98.67917 -137.47235,218.48308 -75.24086,119.8039 -137.36506,218.3393 -138.05382,218.9675 -0.68873,0.6282 -169.86155,0.9698 -375.93961,0.759 l -374.68727,-0.3832 11.5984,-10.6257 11.5986,-10.6255 347.83188,-0.7591 347.83183,-0.7589 146.48396,-235.0585 c 80.56625,-129.28212 146.48406,-235.61841 146.48406,-236.30283 0,-1.14296 -39.54075,-0.8035 -81.73065,0.70166 l -17.3327,0.61835 5.0482,-3.22919 c 4.8635,-3.11107 7.54611,-3.26844 73.33091,-4.30217 37.55548,-0.59013 68.45812,-0.93339 68.67251,-0.76274 0.21437,0.17072 -1.7325,51.75044 -4.32642,114.62182 -2.59396,62.87133 -4.2511,114.6898 -3.68254,115.1521 0.56859,0.4624 2.666,-0.8005 4.66095,-2.8064 1.995,-2.0059 53.47117,-52.48707 114.391515,-112.18029 l 110.764214,-108.5332 28.570783,-0.41965 c 16.012606,-0.23502 28.126766,0.1647 27.560622,0.90954 -0.555577,0.731 -63.208543,112.21381 -139.228833,247.7395 -76.020311,135.5257 -138.417021,246.5682 -138.659411,246.761 -0.24244,0.1931 -11.28688,0.8515 -24.5433,1.4636 -20.24971,0.9348 -23.93855,0.7743 -23.07674,-1.0043 l 0,0 z"
       id="path3013"
       inkscape:connector-curvature="0" />
    <path
       style="fill:#ffffff;stroke:#000000;stroke-width:4.20818329;stroke-miterlimit:4;stroke-opacity:1;stroke-dasharray:none"
       d="m 63.473483,1317.9643 -237.553563,-0.391 4.72323,-7.58 4.72325,-7.5798 339.98941,-0.3835 339.98936,-0.3837 47.22178,-101.6415 c 25.97211,-55.9029 47.04831,-101.7458 46.83603,-101.873 -0.21213,-0.1271 -106.22253,0.2438 -235.57827,0.8247 -129.35587,0.5808 -235.28457,0.999 -235.39708,0.9294 -0.36069,-0.2229 148.14805,-278.80817 148.99452,-279.49655 0.44791,-0.36423 217.19557,-0.83948 481.66142,-1.0561 427.23983,-0.34994 480.58953,-0.14006 478.53633,1.88302 -1.271,1.25234 -5.9096,5.8631 -10.3074,10.24615 l -7.9962,7.96923 -384.81378,0.21697 c -211.64774,0.11931 -413.68006,0.63166 -448.96094,1.13848 l -64.14703,0.92149 -53.90432,105.49731 c -29.64732,58.0235 -53.90945,105.7746 -53.91591,106.1135 -0.0114,0.339 102.05478,0.1217 226.8023,-0.4823 l 226.81381,-1.0986 -3.67191,8.0721 c -34.21838,75.2222 -112.0999,247.9504 -112.0999,248.6189 0,0.4915 19.39282,0.622 43.09514,0.2897 l 43.09505,-0.6042 -4.36302,5.4751 -4.36298,5.4751 -168.92791,-0.3548 c -92.91032,-0.1951 -275.82704,-0.5309 -406.481417,-0.746 z"
       id="path3015"
       inkscape:connector-curvature="0" />
  </g>
</svg>
